# AST/ASF file generated using VICON BodyLanguage
# -----------------------------------------------
:version 1.10
:name VICON
:units
  mass 1.0
  length 0.45
  angle deg
:documentation
   .ast/.asf automatically generated from VICON data using
   VICON BodyBuilder and BodyLanguage model FoxedUp or BRILLIANT.MOD
:root
   order TX TY TZ RX RY RZ
   axis XYZ
   position 0 0 0  
   orientation 0 0 0 
:bonedata
  begin
     id 1 
     name lhipjoint
     direction 0.702568 -0.596508 0.388042 
     length 2.56661 
     axis 0 0 0  XYZ
  end
  begin
     id 2 
     name lfemur
     direction 0.34202 -0.939693 0  
     length 6.58374  
     axis 0 0 20  XYZ
    dof rx ry rz
    limits (-160.0 20.0)
           (-70.0 70.0)
           (-60.0 70.0)
  end
  begin
     id 3 
     name ltibia
     direction 0.34202 -0.939693 0   
     length 6.62538   
     axis 0 0 20   XYZ
    dof rx
    limits (-10.0 170.0)
  end
  begin
     id 4 
     name lfoot
     direction 0.10455 -0.287249 0.952133   
     length 2.26699   
     axis -90 7.62852e-016 20   XYZ
    dof rx rz
    limits (-45.0 90.0)
           (-70.0 20.0)
  end
  begin
     id 5 
     name ltoes
     direction 1.53572e-011 -4.22322e-011 1   
     length 1.12949   
     axis -90 7.62852e-016 20   XYZ
    dof rx
    limits (-90.0 20.0)
  end
  begin
     id 6 
     name rhipjoint
     direction -0.728055 -0.574632 0.373811   
     length 2.66432  
     axis 0 0 0  XYZ 
  end
  begin
     id 7 
     name rfemur
     direction -0.34202 -0.939693 0   
     length 6.66732   
     axis 0 0 -20   XYZ
    dof rx ry rz
    limits (-160.0 20.0)
           (-70.0 70.0)
           (-70.0 60.0)
  end
  begin
     id 8 
     name rtibia
     direction -0.34202 -0.939693 0   
     length 6.59288   
     axis 0 0 -20   XYZ
    dof rx
    limits (-10.0 170.0)
 end
 begin
     id 9 
     name rfoot
     direction -0.119193 -0.327479 0.93731   
     length 2.38061  
     axis -90 -7.62852e-016 -20   XYZ
    dof rx rz
    limits (-45.0 90.0)
           (-20.0 70.0)
  end
  begin
     id 10 
     name rtoes
     direction -1.53547e-011 -4.21827e-011 1   
     length 1.17899   
     axis -90 -7.62852e-016 -20   XYZ
    dof rx
    limits (-90.0 20.0)
  end
  begin
     id 11 
     name lowerback
     direction -0.000416114 0.999912 -0.0132284   
     length 2.12109   
     axis 0 0 0   XYZ
    dof rx ry rz
    limits (-20.0 45.0)
           (-30.0 30.0)
           (-30.0 30.0)
  end
  begin
     id 12 
     name upperback
     direction -0.00136371 0.99809 0.0617608   
     length 2.10067   
     axis 0 0 0   XYZ
    dof rx ry rz
    limits (-20.0 45.0)
           (-30.0 30.0)
           (-30.0 30.0)
  end
  begin
     id 13 
     name thorax
     direction -3.43026e-005 0.997776 0.0666515   
     length 2.10618   
     axis 0 0 0   XYZ
    dof rx ry rz
    limits (-20.0 45.0)
           (-30.0 30.0)
           (-30.0 30.0)
  end
  begin
     id 14 
     name lowerneck
     direction 0.0398646 0.998418 0.0396592   
     length 1.83817   
     axis 0 0 0   XYZ
    dof rx ry rz
    limits (-20.0 45.0)
           (-30.0 30.0)
           (-30.0 30.0)
  end
  begin
     id 15 
     name upperneck
     direction -0.0367268 0.961527 -0.272244   
     length 1.81975   
     axis 0 0 0   XYZ
    dof rx ry rz
    limits (-20.0 45.0)
           (-30.0 30.0)
           (-30.0 30.0)
  end
  begin
     id 16
     name head
     direction -0.0182665 0.99536 -0.0944669  
     length 1.86026  
     axis 0 0 0   XYZ
    dof rx ry rz
    limits (-20.0 45.0)
           (-30.0 30.0)
           (-30.0 30.0)
  end
  begin
     id 17 
     name lclavicle
     direction 0.924239 0.361045 0.124212  
     length 3.26878  
     axis 0 0 0   XYZ
    dof ry rz
    limits (-20.0 10.0)
           (0.0 20.0)
  end
  begin
     id 18 
     name lhumerus
     direction 1 -4.48968e-011 -2.56583e-027   
     length 4.58538   
     axis 180 -30 -90   XYZ
    dof rx ry rz
    limits (-60.0 90.0)
           (-90.0 90.0)
           (-90.0 90.0)
  end
  begin
     id 19
     name lradius
     direction 1 -4.4898e-011 -5.50375e-027   
     length 2.68935   
     axis 180 -30 -90   XYZ
    dof rx
    limits (-10.0 170.0)
  end
  begin
     id 20
     name lwrist
     direction 1 -4.48939e-011 -1.48955e-026   
     length 1.34468   
     axis 9.0955e-015 90 90   XYZ
    dof ry
    limits (-180.0 0.0)
 end
  begin
     id 21 
     name lhand
     direction 1 -4.48936e-011 -2.97907e-026   
     length 0.585058   
     axis 1.90115e-014 90 90   XYZ
    dof rx rz
    limits (-90.0 90.0)
           (-45.0 45.0)
  end
  begin
     id 22 
     name lfingers
     direction 1 -4.49082e-011 -5.96235e-026   
     length 0.471689   
     axis 3.80223e-014 90 90   XYZ
    dof rx
    limits (0.0 90.0)
  end
  begin
     id 23
     name lthumb
     direction 0.707107 -6.3489e-011 0.707107   
     length 0.677253   
     axis -90 45 -3.84942e-014   XYZ
    dof rx rz
    limits (-45.0 45.0)
           (-45.0 45.0)
  end
  begin
     id 24 
     name rclavicle
     direction -0.923098 0.371783 0.0983239   
     length 3.19656  
     axis 0 0 0   XYZ 
    dof ry rz
    limits (-10.0 20.0)
           (-20.0 0.0)
  end
  begin
     id 25 
     name rhumerus
     direction -1 -4.48976e-011 -2.5492e-027  
     length 4.4745   
     axis 180 30 90   XYZ
    dof rx ry rz
    limits (-90.0 60.0)
           (-90.0 90.0)
           (-90.0 90.0)
  end
  begin
     id 26 
     name rradius
     direction -1 -4.48941e-011 -4.36555e-027   
     length 2.93896   
     axis 180 30 90   XYZ
    dof rx
    limits (-10.0 170.0)
  end
  begin
     id 27 
     name rwrist
     direction -1 -4.49044e-011 -1.49032e-026   
     length 1.46948   
     axis 9.0955e-015 -90 -90   XYZ
    dof ry
    limits (-180.0 0.0)
  end
  begin
     id 28
     name rhand
     direction -1 -4.48826e-011 -2.97749e-026   
     length 0.405092   
     axis 1.90115e-014 -90 -90   XYZ
    dof rx rz
    limits (-90.0 90.0)
           (-45.0 45.0)
  end
  begin
     id 29
     name rfingers
     direction -1 -4.49209e-011 -5.96602e-026   
     length 0.326596   
     axis 3.80223e-014 -90 -90   XYZ
    dof rx
    limits (0.0 90.0)
  end
  begin
     id 30
     name rthumb
     direction -0.707107 -6.34776e-011 0.707107   
     length 0.468928   
     axis -90 -45 3.84942e-014   XYZ
    dof rx rz
    limits (-45.0 45.0)
           (-45.0 45.0)
  end
:hierarchy
  begin
    root lhipjoint rhipjoint lowerback
    lhipjoint lfemur
    lfemur ltibia
    ltibia lfoot
    lfoot ltoes
    rhipjoint rfemur
    rfemur rtibia
    rtibia rfoot
    rfoot rtoes
    lowerback upperback
    upperback thorax
    thorax lowerneck lclavicle rclavicle
    lowerneck upperneck
    upperneck head
    lclavicle lhumerus
    lhumerus lradius
    lradius lwrist
    lwrist lhand lthumb
    lhand lfingers
    rclavicle rhumerus
    rhumerus rradius
    rradius rwrist
    rwrist rhand rthumb
    rhand rfingers
  end

#!OML:ASF H:\Punching\Project 1\Capture day 1\Session 1\female.ASF
:FULLY-SPECIFIED
:DEGREES
61
root 0.657145 15.6262 5.82203 6.75701 -14.2431 3.20389
lowerback -5.0654 -2.86035 -4.7701
upperback -7.82721 -3.7998 0.0637718
thorax -5.00113 -1.66486 2.69613
lowerneck -8.81055 -7.23035 -3.01864
upperneck 25.4087 -9.68989 -0.724598
head 9.57689 -4.95807 -0.806019
rclavicle -3.2551e-015 1.98785e-015
rhumerus -41.0556 -4.41776 -75.564
rradius 27.6327
rwrist 7.63093
rhand -8.51177 -9.87652
rfingers 7.12502
rthumb 17.4164 -39.1163
lclavicle -3.2551e-015 1.98785e-015
lhumerus -49.2077 16.3479 72.9212
lradius 38.9199
lwrist -9.80116
lhand -3.72756 17.3248
lfingers 7.12502
lthumb 22.0156 46.0918
rfemur -16.9081 9.31137 11.5183
rtibia 33.0598
rfoot -19.9061 -18.5758
rtoes -3.07114
lfemur -2.1535 -13.4431 -22.2696
ltibia 14.7175
lfoot -18.33 28.3793
ltoes 3.18897
62
root 0.65502 15.6293 5.81705 6.77329 -14.1964 3.23422
lowerback -5.00655 -2.86118 -4.76618
upperback -7.8233 -3.80562 0.0264539
thorax -5.03229 -1.66822 2.65823
lowerneck -8.97834 -7.10594 -2.91091
upperneck 25.8106 -9.50816 -0.863052
head 9.73587 -4.87544 -0.869341
rclavicle -9.7653e-015 3.57812e-015
rhumerus -41.0339 -4.50986 -75.7035
rradius 28.0082
rwrist 6.4318
rhand -8.57249 -10.006
rfingers 7.12502
rthumb 17.3579 -39.2509
lclavicle -9.7653e-015 3.57812e-015
lhumerus -49.3881 16.945 72.2554
lradius 38.9803
lwrist -9.63671
lhand -3.30881 17.5928
lfingers 7.12502
lthumb 22.4176 46.3119
rfemur -16.9373 9.23987 11.4955
rtibia 33.0516
rfoot -19.8689 -18.5454
rtoes -3.10134
lfemur -2.24256 -13.303 -22.2485
ltibia 14.7536
lfoot -18.2413 28.1886
ltoes 3.11463
63
root 0.653327 15.633 5.8112 6.78742 -14.1362 3.26444
lowerback -4.93682 -2.85945 -4.7576
upperback -7.81694 -3.80906 -0.0223492
thorax -5.06818 -1.67087 2.6064
lowerneck -9.18109 -6.96323 -2.78029
upperneck 26.2986 -9.30826 -0.995269
head 9.93305 -4.78111 -0.936474
rclavicle -1.16786e-014 -7.65321e-015
rhumerus -41.0572 -4.57946 -75.8578
rradius 28.4875
rwrist 5.00238
rhand -8.61912 -9.9854
rfingers 7.12502
rthumb 17.313 -39.2343
lclavicle -1.16786e-014 -7.65321e-015
lhumerus -49.563 17.49 71.5781
lradius 39.1807
lwrist -9.34008
lhand -2.87227 17.8196
lfingers 7.12502
lthumb 22.8365 46.4876
rfemur -16.96 9.16733 11.4725
rtibia 33.0361
rfoot -19.8281 -18.5199
rtoes -3.12402
lfemur -2.34767 -13.1529 -22.2232
ltibia 14.8102
lfoot -18.157 27.9704
ltoes 3.06208
64
root 0.652154 15.6372 5.80446 6.7985 -14.0598 3.29942
lowerback -4.85566 -2.85484 -4.7485
upperback -7.80717 -3.80965 -0.0833671
thorax -5.10796 -1.6724 2.54217
lowerneck -9.41386 -6.80558 -2.62979
upperneck 26.8571 -9.0943 -1.12025
head 10.1633 -4.67716 -1.00633
rclavicle 6.79595e-015 3.08116e-015
rhumerus -41.1383 -4.599 -76.0371
rradius 29.1328
rwrist 3.31978
rhand -8.56853 -9.95313
rfingers 7.12502
rthumb 17.3617 -39.1977
lclavicle 6.79595e-015 3.08116e-015
lhumerus -49.7147 17.9418 70.9312
lradius 39.5531
lwrist -8.83456
lhand -2.48627 18.0161
lfingers 7.12502
lthumb 23.2069 46.6379
rfemur -16.9766 9.08853 11.4438
rtibia 33.0148
rfoot -19.7835 -18.4988
rtoes -3.14563
lfemur -2.46986 -12.9882 -22.1989
ltibia 14.8877
lfoot -18.0668 27.722
ltoes 3.00119
65
root 0.651638 15.6416 5.79685 6.80409 -13.9675 3.34205
lowerback -4.76641 -2.8456 -4.73907
upperback -7.78749 -3.8047 -0.15952
thorax -5.14317 -1.67187 2.46225
lowerneck -9.66904 -6.63836 -2.46234
upperneck 27.46 -8.87504 -1.2295
head 10.4171 -4.56692 -1.0753
rclavicle -1.70085e-014 -8.89561e-015
rhumerus -41.2761 -4.55388 -76.2541
rradius 30.0006
rwrist 1.37094
rhand -8.41049 -9.9799
rfingers 7.12502
rthumb 17.5138 -39.211
lclavicle -1.70085e-014 -8.89561e-015
lhumerus -49.8153 18.2774 70.343
lradius 40.1126
lwrist -8.0887
lhand -2.22983 18.1531
lfingers 7.12502
lthumb 23.4529 46.7437
rfemur -16.9869 8.99588 11.4058
rtibia 32.9905
rfoot -19.7352 -18.4756
rtoes -3.17021
lfemur -2.60726 -12.8057 -22.1805
ltibia 14.9856
lfoot -17.9638 27.4445
ltoes 2.91668
66
root 0.651829 15.6462 5.78797 6.80789 -13.861 3.38866
lowerback -4.66296 -2.83265 -4.73165
upperback -7.76175 -3.79571 -0.244687
thorax -5.18073 -1.66946 2.37473
lowerneck -9.9382 -6.4657 -2.28985
upperneck 28.0905 -8.65552 -1.31762
head 10.6888 -4.45318 -1.1392
rclavicle 2.004e-014 1.37658e-014
rhumerus -41.4727 -4.41799 -76.5168
rradius 31.1385
rwrist -0.859331
rhand -8.16616 -10.1778
rfingers 7.12502
rthumb 17.749 -39.3878
lclavicle 2.004e-014 1.37658e-014
lhumerus -49.8542 18.4899 69.8343
lradius 40.8773
lwrist -7.09417
lhand -2.12986 18.2653
lfingers 7.12502
lthumb 23.5488 46.8436
rfemur -16.9979 8.89282 11.3616
rtibia 32.9659
rfoot -19.6825 -18.4521
rtoes -3.19389
lfemur -2.76425 -12.5969 -22.1628
ltibia 15.1032
lfoot -17.8395 27.1329
ltoes 2.79098
67
root 0.652754 15.6509 5.77772 6.80966 -13.7409 3.43971
lowerback -4.54493 -2.815 -4.72868
upperback -7.72954 -3.78132 -0.337451
thorax -5.22029 -1.66434 2.28241
lowerneck -10.2071 -6.29365 -2.12216
upperneck 28.7262 -8.44445 -1.37689
head 10.9683 -4.34008 -1.19325
rclavicle -1.54369e-014 -1.09829e-014
rhumerus -41.7197 -4.19257 -76.8232
rradius 32.57
rwrist -3.3561
rhand -7.90864 -10.6225
rfingers 7.12502
rthumb 17.9967 -39.8099
lclavicle -1.54369e-014 -1.09829e-014
lhumerus -49.8179 18.5885 69.4079
lradius 41.855
lwrist -5.89122
lhand -2.17895 18.3615
lfingers 7.12502
lthumb 23.5018 46.9459
rfemur -17.0116 8.77834 11.311
rtibia 32.9429
rfoot -19.6199 -18.4301
rtoes -3.24579
lfemur -2.94195 -12.3616 -22.147
ltibia 15.243
lfoot -17.6911 26.7892
ltoes 2.60752
68
root 0.654432 15.6557 5.76597 6.81236 -13.6038 3.49178
lowerback -4.41084 -2.79504 -4.73039
upperback -7.69223 -3.76474 -0.433792
thorax -5.26364 -1.65789 2.18967
lowerneck -10.467 -6.12618 -1.97304
upperneck 29.3507 -8.24793 -1.39566
head 11.2494 -4.23043 -1.23068
rclavicle -1.68109e-014 4.35773e-015
rhumerus -42.0035 -3.87699 -77.1696
rradius 34.2893
rwrist -6.11165
rhand -7.77208 -11.2606
rfingers 7.12502
rthumb 18.1281 -40.4358
lclavicle -1.68109e-014 4.35773e-015
lhumerus -49.7061 18.6042 69.0488
lradius 43.0568
lwrist -4.57688
lhand -2.32186 18.4963
lfingers 7.12502
lthumb 23.3647 47.0981
rfemur -17.0301 8.65314 11.2571
rtibia 32.9221
rfoot -19.5525 -18.4106
rtoes -3.29554
lfemur -3.14413 -12.0944 -22.1284
ltibia 15.4076
lfoot -17.5157 26.4031
ltoes 2.36005
69
root 0.656871 15.6606 5.75248 6.81831 -13.4492 3.53839
lowerback -4.25816 -2.77279 -4.73401
upperback -7.64926 -3.74603 -0.530409
thorax -5.31155 -1.65019 2.09849
lowerneck -10.7145 -5.97013 -1.84164
upperneck 29.947 -8.07518 -1.37625
head 11.5243 -4.12855 -1.2526
rclavicle -4.69536e-014 -3.60297e-014
rhumerus -42.3102 -3.47776 -77.5469
rradius 36.2686
rwrist -9.08137
rhand -7.88026 -11.9769
rfingers 7.12502
rthumb 18.0241 -41.1618
lclavicle -4.69536e-014 -3.60297e-014
lhumerus -49.5032 18.547 68.7525
lradius 44.4574
lwrist -3.24728
lhand -2.53286 18.6659
lfingers 7.12502
lthumb 23.1622 47.2934
rfemur -17.0557 8.52255 11.207
rtibia 32.9052
rfoot -19.4807 -18.3971
rtoes -3.34335
lfemur -3.3729 -11.8011 -22.0998
ltibia 15.5974
lfoot -17.3176 25.9793
ltoes 2.05474
70
root 0.660083 15.6653 5.73736 6.82837 -13.2767 3.57877
lowerback -4.0953 -2.74695 -4.73851
upperback -7.59549 -3.72277 -0.628265
thorax -5.35402 -1.64042 2.00666
lowerneck -10.9515 -5.83223 -1.73052
upperneck 30.5029 -7.9364 -1.31452
head 11.7885 -4.03867 -1.25787
rclavicle -6.53753e-014 -1.54555e-014
rhumerus -42.617 -3.02983 -77.9283
rradius 38.4613
rwrist -12.1254
rhand -8.24222 -12.6488
rfingers 7.12502
rthumb 17.6758 -41.8654
lclavicle -6.53753e-014 -1.54555e-014
lhumerus -49.1977 18.4322 68.5094
lradius 46.0413
lwrist -1.99802
lhand -2.77916 18.856
lfingers 7.12502
lthumb 22.9259 47.5129
rfemur -17.0894 8.38629 11.1612
rtibia 32.8931
rfoot -19.4033 -18.3891
rtoes -3.39001
lfemur -3.62879 -11.4862 -22.061
ltibia 15.8142
lfoot -17.1046 25.5189
ltoes 1.70248
71
root 0.664182 15.6699 5.72066 6.84034 -13.0853 3.61749
lowerback -3.92266 -2.7205 -4.74913
upperback -7.53018 -3.69884 -0.727158
thorax -5.38949 -1.63028 1.91723
lowerneck -11.1707 -5.71532 -1.63791
upperneck 31.0027 -7.83508 -1.21372
head 12.0334 -3.96265 -1.24744
rclavicle -5.08392e-014 -1.90833e-014
rhumerus -42.9063 -2.55702 -78.2881
rradius 40.8156
rwrist -15.0659
rhand -8.75788 -13.1361
rfingers 7.12502
rthumb 17.1795 -42.3967
lclavicle -5.08392e-014 -1.90833e-014
lhumerus -48.7882 18.2688 68.3127
lradius 47.7846
lwrist -0.874903
lhand -3.05406 19.0583
lfingers 7.12502
lthumb 22.6621 47.7478
rfemur -17.1307 8.23866 11.1137
rtibia 32.8881
rfoot -19.3226 -18.3802
rtoes -3.42742
lfemur -3.91046 -11.1573 -22.0185
ltibia 16.0576
lfoot -16.8849 25.027
ltoes 1.32214
72
root 0.669224 15.6744 5.70236 6.85612 -12.8749 3.65344
lowerback -3.74104 -2.69534 -4.76781
upperback -7.45558 -3.67668 -0.822736
thorax -5.41943 -1.62068 1.83581
lowerneck -11.3684 -5.62253 -1.56998
upperneck 31.4398 -7.77359 -1.07634
head 12.2546 -3.90261 -1.2211
rclavicle -4.60932e-015 3.67752e-015
rhumerus -43.1636 -2.07022 -78.6046
rradius 43.2859
rwrist -17.7577
rhand -9.34967 -13.5253
rfingers 7.12502
rthumb 16.6098 -42.8345
lclavicle -4.60932e-015 3.67752e-015
lhumerus -48.2839 18.0625 68.1637
lradius 49.6766
lwrist 0.12764
lhand -3.37185 19.2727
lfingers 7.12502
lthumb 22.3571 47.9991
rfemur -17.1832 8.07543 11.0655
rtibia 32.8924
rfoot -19.2347 -18.3693
rtoes -3.47666
lfemur -4.22001 -10.8174 -21.9712
ltibia 16.3263
lfoot -16.6596 24.5069
ltoes 0.915154
73
root 0.675352 15.6786 5.68249 6.87534 -12.6476 3.6901
lowerback -3.54939 -2.67268 -4.80077
upperback -7.37469 -3.65807 -0.912392
thorax -5.44706 -1.61198 1.76868
lowerneck -11.5346 -5.55623 -1.52817
upperneck 31.8038 -7.7532 -0.907468
head 12.4448 -3.8602 -1.17999
rclavicle -7.00716e-015 -1.18277e-014
rhumerus -43.3784 -1.57941 -78.8589
rradius 45.8293
rwrist -20.097
rhand -9.92828 -13.7981
rfingers 7.12502
rthumb 16.0527 -43.1531
lclavicle -7.00716e-015 -1.18277e-014
lhumerus -47.6981 17.8161 68.0605
lradius 51.7027
lwrist 1.03394
lhand -3.74132 19.4773
lfingers 7.12502
lthumb 22.0023 48.2458
rfemur -17.2487 7.89007 11.0119
rtibia 32.908
rfoot -19.1387 -18.3492
rtoes -3.54809
lfemur -4.5578 -10.4754 -21.9248
ltibia 16.6197
lfoot -16.4321 23.9686
ltoes 0.496358
74
root 0.682597 15.6826 5.66095 6.89819 -12.406 3.72521
lowerback -3.34047 -2.65608 -4.84949
upperback -7.29398 -3.64844 -0.991758
thorax -5.48277 -1.60634 1.72181
lowerneck -11.6664 -5.51412 -1.50337
upperneck 32.0977 -7.76783 -0.722936
head 12.6026 -3.83389 -1.13086
rclavicle -2.11209e-014 -9.93923e-015
rhumerus -43.5172 -1.11575 -79.0328
rradius 48.3765
rwrist -22.0262
rhand -10.3704 -13.9622
rfingers 7.12502
rthumb 15.627 -43.3511
lclavicle -2.11209e-014 -9.93923e-015
lhumerus -47.0453 17.5299 67.9994
lradius 53.852
lwrist 1.89853
lhand -4.19042 19.7214
lfingers 7.12502
lthumb 21.5711 48.54
rfemur -17.3279 7.69259 10.9547
rtibia 32.9353
rfoot -19.0377 -18.3259
rtoes -3.63153
lfemur -4.92402 -10.1446 -21.8789
ltibia 16.9395
lfoot -16.21 23.4263
ltoes 0.0766039
